<?xml version="1.0" encoding="UTF-8" standalone="no"?>
<!-- Created with Inkscape (http://www.inkscape.org/) -->

<svg
   version="1.1"
   id="svg1"
   width="94.493332"
   height="94.493332"
   viewBox="0 0 94.493332 94.493332"
   xmlns="http://www.w3.org/2000/svg"
   xmlns:svg="http://www.w3.org/2000/svg">
  <defs
     id="defs1" />
  <g
     id="g1">
    <g
       id="group-R5">
      <path
         id="path2"
         d="M 708.746,104.668 H 133.313 V 586.34 H 708.746 V 104.668"
         style="fill:#ffffff;fill-opacity:1;fill-rule:evenodd;stroke:none"
         transform="matrix(0.13333333,0,0,-0.13333333,0,94.493333)" />
      <path
         id="path3"
         d="M 0,0 V 708.656 H 708.656 V 566.93 H 141.73 V 141.738 H 708.656 V 0 H 0"
         style="fill:#1b458f;fill-opacity:1;fill-rule:evenodd;stroke:none"
         transform="matrix(0.13333333,0,0,-0.13333333,0,94.493333)" />
      <path
         id="path4"
         d="m 412.516,525.102 h 29.695 v -94.887 c 0,-10.797 0.422,-13.285 2.492,-17.231 3.32,-6.437 10.176,-9.968 19.727,-9.968 12.664,0 20.761,6.23 22.011,16.82 0.411,3.113 0.411,5.187 0.411,12.875 v 92.391 h 29.48 v -97.168 c 0,-13.707 -0.203,-16.407 -2.273,-22.629 -3.75,-11.422 -17.864,-27.203 -49.004,-27.203 -22.012,0 -38,6.644 -46.309,19.308 -4.766,7.477 -6.23,13.289 -6.23,27.199 v 100.493"
         style="fill:#1b458f;fill-opacity:1;fill-rule:nonzero;stroke:none"
         transform="matrix(0.13333333,0,0,-0.13333333,0,94.493333)" />
      <path
         id="path5"
         d="m 545.406,525.102 h 32.188 l 27.605,-57.719 c 7.266,-15.367 12.871,-30.524 15.781,-40.903 -1.042,11.211 -2.078,29.692 -2.285,39.657 l -0.625,58.965 h 27.618 V 380.801 h -30.313 l -24.715,55.23 c -7.883,18.063 -16.816,38.41 -19.512,47.336 1.036,-11.836 1.25,-28.855 1.454,-40.902 l 0.832,-61.664 h -28.028 v 144.301"
         style="fill:#1b458f;fill-opacity:1;fill-rule:nonzero;stroke:none"
         transform="matrix(0.13333333,0,0,-0.13333333,0,94.493333)" />
      <path
         id="path6"
         d="m 678.395,525.102 h 30.312 V 380.801 h -30.312 v 144.301"
         style="fill:#1b458f;fill-opacity:1;fill-rule:nonzero;stroke:none"
         transform="matrix(0.13333333,0,0,-0.13333333,0,94.493333)" />
      <path
         id="path7"
         d="m 412.145,325.258 h 30.722 l 12.461,-56.891 c 6.024,-26.988 7.684,-47.547 7.684,-47.547 0.617,5.606 3.117,26.16 7.472,46.094 l 12.871,58.344 h 31.778 l 13.281,-64.57 c 2.695,-13.497 6.231,-38.208 6.231,-38.208 0.41,4.571 5.398,35.922 7.89,47.965 l 11.836,54.813 h 30.516 L 550.016,179.711 h -31.778 l -12.871,58.762 c -4.98,22.422 -6.64,40.691 -6.855,41.937 0,0 -2.903,-20.347 -7.051,-41.523 l -11.836,-59.176 h -33.02 l -34.46,145.547"
         style="fill:#1b458f;fill-opacity:1;fill-rule:nonzero;stroke:none"
         transform="matrix(0.13333333,0,0,-0.13333333,0,94.493333)" />
      <path
         id="path8"
         d="m 604.82,325.102 h 29.688 v -94.887 c 0,-10.797 0.41,-13.285 2.488,-17.231 3.332,-6.437 10.176,-9.968 19.727,-9.968 12.668,0 20.761,6.23 22.004,16.82 0.418,3.113 0.418,5.187 0.418,12.875 v 92.391 h 29.484 v -97.168 c 0,-13.707 -0.207,-16.407 -2.285,-22.629 -3.731,-11.422 -17.852,-27.203 -49.004,-27.203 -22.004,0 -37.988,6.644 -46.289,19.308 -4.785,7.477 -6.231,13.289 -6.231,27.199 v 100.493"
         style="fill:#1b458f;fill-opacity:1;fill-rule:nonzero;stroke:none"
         transform="matrix(0.13333333,0,0,-0.13333333,0,94.493333)" />
      <path
         id="path9"
         d="m 634.496,368.629 c 8.899,0 16.164,-7.086 16.164,-15.809 0,-8.898 -7.265,-16.164 -15.976,-16.164 -8.907,0 -15.996,7.266 -15.996,16.164 0,8.723 7.089,15.809 15.808,15.809"
         style="fill:#1b458f;fill-opacity:1;fill-rule:nonzero;stroke:none"
         transform="matrix(0.13333333,0,0,-0.13333333,0,94.493333)" />
      <path
         id="path10"
         d="m 679.352,368.629 c 8.894,0 16.16,-7.086 16.16,-15.809 0,-8.898 -7.266,-16.164 -15.985,-16.164 -8.906,0 -15.988,7.266 -15.988,16.164 0,8.723 7.082,15.809 15.813,15.809"
         style="fill:#1b458f;fill-opacity:1;fill-rule:nonzero;stroke:none"
         transform="matrix(0.13333333,0,0,-0.13333333,0,94.493333)" />
    </g>
  </g>
</svg>
